<?xml version="1.0" encoding="UTF-8"?>
<svg xmlns="http://www.w3.org/2000/svg" xmlns:xlink="http://www.w3.org/1999/xlink" width="22px" height="22px" viewBox="0 0 22 22" version="1.1">
<g id="surface1">
<path style=" stroke:none;fill-rule:evenodd;fill:rgb(0%,0%,0%);fill-opacity:1;" d="M 14.640625 1.71875 L 9.617188 4.683594 L 15.515625 5.472656 L 20.363281 2.488281 Z M 15.804688 10.511719 C 19.019531 10.511719 21.625 13.082031 21.625 16.25 C 21.625 19.421875 19.019531 21.992188 15.804688 21.992188 C 12.59375 21.992188 9.984375 19.421875 9.984375 16.25 C 9.984375 13.082031 12.59375 10.511719 15.804688 10.511719 Z M 14.308594 15.441406 L 15.175781 16.242188 L 17.167969 14.246094 C 17.363281 14.050781 17.484375 13.894531 17.722656 14.140625 L 18.503906 14.925781 C 18.757812 15.175781 18.746094 15.324219 18.503906 15.554688 L 15.621094 18.347656 C 15.113281 18.839844 15.199219 18.871094 14.683594 18.367188 L 12.996094 16.710938 C 12.886719 16.59375 12.902344 16.480469 13.019531 16.363281 L 13.921875 15.441406 C 14.058594 15.296875 14.167969 15.308594 14.308594 15.441406 Z M 8.921875 5.429688 L 8.917969 11.515625 L 6.679688 10.011719 L 4.4375 11.261719 L 4.703125 4.863281 L 0.84375 4.34375 L 0.84375 17.792969 L 8.640625 18.789062 C 8.75 19.09375 8.878906 19.386719 9.027344 19.671875 L 0.40625 18.574219 C 0.179688 18.566406 0 18.382812 0 18.15625 L 0 3.871094 C 0.0117188 3.695312 0.0820312 3.574219 0.25 3.492188 L 7.949219 0.0429688 C 8.019531 0.015625 8.101562 0 8.179688 0.0117188 L 21.605469 1.816406 C 21.824219 1.84375 21.976562 2.023438 21.976562 2.246094 L 21.976562 2.25 L 22 12.078125 C 21.75 11.714844 21.320312 11.207031 21.132812 10.886719 L 21.132812 2.996094 L 16.085938 6.214844 L 16.085938 8.785156 C 15.804688 8.777344 15.523438 8.78125 15.242188 8.800781 L 15.242188 6.273438 Z M 5.371094 4.113281 L 10.257812 1.128906 L 8.1875 0.851562 L 1.925781 3.652344 Z M 5.371094 4.113281 "/>
</g>
</svg>
