<?xml version="1.0" encoding="UTF-8"?>
<svg xmlns="http://www.w3.org/2000/svg" xmlns:xlink="http://www.w3.org/1999/xlink" width="22px" height="22px" viewBox="0 0 22 22" version="1.1">
<g id="surface1">
<path style=" stroke:none;fill-rule:nonzero;fill:rgb(0%,0%,0%);fill-opacity:1;" d="M 0.476562 4.792969 L 1.28125 4.792969 L 1.28125 2.515625 C 1.28125 2.199219 1.480469 1.941406 1.722656 1.941406 L 2.511719 1.941406 L 2.511719 0.574219 C 2.511719 0.257812 2.707031 0 2.953125 0 L 10.136719 0 C 10.382812 0 10.582031 0.257812 10.582031 0.574219 L 10.582031 1.941406 L 20.269531 1.941406 C 20.515625 1.941406 20.714844 2.199219 20.714844 2.515625 L 20.714844 4.792969 L 21.523438 4.792969 C 21.765625 4.792969 21.964844 5.050781 21.964844 5.367188 C 21.964844 5.40625 21.960938 5.449219 21.953125 5.484375 L 20.40625 20.230469 C 20.355469 20.710938 20.191406 21.15625 19.941406 21.480469 C 19.695312 21.800781 19.371094 21.996094 18.988281 21.996094 L 2.660156 21.996094 C 2.273438 21.996094 1.9375 21.796875 1.6875 21.476562 C 1.4375 21.148438 1.277344 20.703125 1.234375 20.214844 L 0.0351562 5.425781 C 0.0117188 5.109375 0.1875 4.828125 0.429688 4.796875 C 0.445312 4.792969 0.460938 4.792969 0.476562 4.792969 Z M 11 7.394531 C 12.328125 7.394531 13.53125 8.09375 14.402344 9.21875 C 15.273438 10.34375 15.808594 11.898438 15.808594 13.621094 C 15.808594 15.339844 15.269531 16.898438 14.402344 18.027344 C 13.53125 19.152344 12.328125 19.847656 11 19.847656 C 9.671875 19.847656 8.46875 19.152344 7.597656 18.023438 C 6.726562 16.894531 6.191406 15.339844 6.191406 13.621094 C 6.191406 11.898438 6.730469 10.34375 7.597656 9.214844 C 8.46875 8.09375 9.671875 7.394531 11 7.394531 Z M 13.804688 9.988281 C 13.085938 9.058594 12.09375 8.484375 11 8.484375 C 9.902344 8.484375 8.914062 9.058594 8.195312 9.988281 C 7.480469 10.917969 7.035156 12.203125 7.035156 13.621094 C 7.035156 15.039062 7.480469 16.320312 8.195312 17.25 C 8.914062 18.179688 9.90625 18.753906 11 18.753906 C 12.097656 18.753906 13.085938 18.179688 13.804688 17.25 C 14.519531 16.320312 14.964844 15.035156 14.964844 13.621094 C 14.964844 12.203125 14.523438 10.917969 13.804688 9.988281 Z M 8.773438 14.410156 C 8.730469 14.351562 8.699219 14.285156 8.675781 14.210938 C 8.652344 14.136719 8.636719 14.058594 8.632812 13.976562 C 8.628906 13.890625 8.640625 13.800781 8.664062 13.714844 C 8.6875 13.632812 8.722656 13.554688 8.769531 13.484375 L 8.792969 13.453125 C 8.839844 13.394531 8.894531 13.347656 8.953125 13.320312 C 9.011719 13.285156 9.070312 13.269531 9.136719 13.261719 C 9.203125 13.257812 9.273438 13.273438 9.339844 13.300781 C 9.402344 13.332031 9.464844 13.378906 9.515625 13.4375 L 9.515625 13.441406 C 9.695312 13.660156 9.882812 13.878906 10.070312 14.097656 L 10.304688 14.367188 L 12.460938 11.445312 C 12.507812 11.382812 12.566406 11.332031 12.625 11.300781 C 12.6875 11.265625 12.757812 11.242188 12.824219 11.242188 C 12.894531 11.242188 12.960938 11.253906 13.027344 11.289062 C 13.085938 11.316406 13.144531 11.363281 13.195312 11.425781 L 13.207031 11.4375 C 13.253906 11.5 13.292969 11.574219 13.320312 11.652344 C 13.347656 11.730469 13.363281 11.820312 13.363281 11.90625 L 13.363281 11.917969 C 13.363281 12.003906 13.355469 12.089844 13.328125 12.167969 C 13.304688 12.246094 13.269531 12.324219 13.222656 12.386719 L 10.714844 15.785156 C 10.667969 15.851562 10.609375 15.90625 10.550781 15.9375 C 10.488281 15.976562 10.421875 15.996094 10.351562 16 C 10.28125 16 10.214844 15.988281 10.152344 15.960938 C 10.089844 15.933594 10.03125 15.886719 9.980469 15.828125 C 9.597656 15.371094 9.121094 14.886719 8.773438 14.410156 Z M 1.722656 5.941406 L 0.96875 5.941406 L 2.117188 20.097656 C 2.136719 20.324219 2.207031 20.527344 2.3125 20.667969 C 2.402344 20.78125 2.523438 20.855469 2.660156 20.855469 L 18.988281 20.855469 C 19.121094 20.855469 19.234375 20.785156 19.320312 20.671875 C 19.433594 20.527344 19.503906 20.316406 19.53125 20.082031 L 21.015625 5.941406 Z M 2.164062 3.089844 L 2.164062 4.789062 L 19.828125 4.546875 L 19.828125 3.089844 L 10.136719 3.089844 C 9.894531 3.089844 9.695312 2.832031 9.695312 2.515625 L 9.695312 1.148438 L 3.394531 1.148438 L 3.394531 2.515625 C 3.394531 2.832031 3.199219 3.089844 2.953125 3.089844 Z M 2.164062 3.089844 "/>
</g>
</svg>
