<?xml version="1.0" encoding="UTF-8"?>
<svg xmlns="http://www.w3.org/2000/svg" xmlns:xlink="http://www.w3.org/1999/xlink" width="22px" height="22px" viewBox="0 0 22 22" version="1.1">
<g id="surface1">
<path style=" stroke:none;fill-rule:nonzero;fill:rgb(0%,0%,0%);fill-opacity:1;" d="M 6.25 8.039062 L 8.703125 8.003906 C 8.824219 8 8.933594 8.039062 9.027344 8.101562 C 9.535156 8.421875 10.015625 8.785156 10.464844 9.195312 C 10.714844 9.425781 10.957031 9.671875 11.191406 9.9375 C 12.039062 8.515625 13.039062 7.070312 14.089844 5.710938 C 15.460938 3.9375 16.921875 2.300781 18.222656 1.035156 C 18.335938 0.925781 18.480469 0.871094 18.621094 0.871094 L 20.519531 0.867188 C 20.851562 0.867188 21.117188 1.160156 21.117188 1.519531 C 21.117188 1.699219 21.050781 1.859375 20.941406 1.976562 C 19.199219 4.078125 17.414062 6.484375 15.792969 8.949219 C 14.292969 11.234375 12.9375 13.570312 11.890625 15.761719 C 11.738281 16.082031 11.378906 16.207031 11.085938 16.042969 C 7 16.125 3.628906 12.601562 3.550781 8.171875 C 3.472656 3.742188 6.722656 0.0820312 10.804688 0 C 10.230469 -1.332031 9.546875 -2.550781 8.734375 -3.640625 C 7.921875 -4.730469 6.972656 -5.695312 5.871094 -6.515625 C 5.597656 -6.71875 5.527344 -7.121094 5.714844 -7.417969 C 5.835938 -7.609375 6.035156 -7.710938 6.238281 -7.699219 Z M 2.695312 0 L 14.292969 0 C 13.472656 0.917969 12.761719 1.816406 12.148438 2.675781 L 2.695312 2.675781 C 2.632812 2.675781 2.578125 2.703125 2.539062 2.742188 C 1.839844 2.695312 1.308594 2.042969 1.351562 1.285156 C 1.394531 0.53125 1.996094 -0.046875 2.695312 0 L 2.695312 16.171875 C 2.695312 16.234375 2.71875 16.292969 2.761719 16.339844 C 2.800781 16.382812 2.855469 16.410156 2.914062 16.410156 L 19.523438 16.410156 C 19.578125 16.410156 19.632812 16.382812 19.675781 16.335938 C 19.71875 16.292969 19.742188 16.234375 19.742188 16.171875 L 19.742188 9.949219 C 20.636719 9.546875 21.476562 9.132812 22.210938 8.746094 L 22.210938 19.085938 C 22.210938 19.882812 21.90625 20.613281 21.417969 21.140625 C 20.933594 21.667969 20.261719 22 19.523438 22 L 2.695312 22 C 1.957031 22 1.285156 21.671875 0.796875 21.144531 C 0.3125 20.617188 0.0078125 19.886719 0.0078125 19.085938 L 0.0078125 2.914062 C 0.0078125 2.113281 0.3125 1.386719 0.796875 0.859375 L 0.800781 0.855469 C 1.289062 0.328125 1.957031 0 2.695312 0 Z M 2.695312 0 "/>
</g>
</svg>
