<?xml version="1.0" encoding="UTF-8"?>
<svg xmlns="http://www.w3.org/2000/svg" xmlns:xlink="http://www.w3.org/1999/xlink" width="25px" height="25px" viewBox="0 0 25 25" version="1.1">
<g id="surface1">
<path style=" stroke:none;fill-rule:nonzero;fill:rgb(0%,0%,0%);fill-opacity:1;" d="M 16.109375 22.164062 C 16.03125 22.558594 15.890625 22.921875 15.6875 23.253906 C 15.480469 23.589844 15.207031 23.898438 14.871094 24.164062 C 14.53125 24.433594 14.164062 24.636719 13.765625 24.773438 C 13.367188 24.910156 12.945312 24.976562 12.5 24.976562 C 12.054688 24.976562 11.632812 24.90625 11.234375 24.773438 C 10.839844 24.636719 10.46875 24.4375 10.136719 24.164062 C 9.796875 23.894531 9.527344 23.589844 9.316406 23.253906 C 9.109375 22.914062 8.964844 22.539062 8.886719 22.128906 C 8.847656 21.929688 8.992188 21.738281 9.203125 21.703125 C 9.207031 21.703125 9.269531 21.695312 9.269531 21.695312 L 15.734375 21.695312 C 15.949219 21.695312 16.125 21.859375 16.125 22.066406 C 16.125 22.101562 16.117188 22.132812 16.109375 22.164062 Z M 4.351562 0.0742188 C 4.746094 -0.0742188 5.191406 0.109375 5.347656 0.480469 C 5.503906 0.851562 5.3125 1.273438 4.917969 1.421875 C 4.066406 1.742188 3.351562 2.1875 2.78125 2.761719 C 2.210938 3.339844 1.78125 4.054688 1.503906 4.914062 C 1.378906 5.296875 0.949219 5.511719 0.542969 5.394531 C 0.136719 5.273438 -0.0898438 4.867188 0.0351562 4.488281 C 0.386719 3.410156 0.929688 2.507812 1.652344 1.773438 C 2.378906 1.042969 3.28125 0.476562 4.351562 0.0742188 Z M 20.082031 1.421875 C 19.6875 1.273438 19.496094 0.851562 19.652344 0.480469 C 19.808594 0.109375 20.253906 -0.0742188 20.648438 0.0742188 C 21.71875 0.476562 22.621094 1.042969 23.347656 1.777344 C 24.070312 2.511719 24.617188 3.414062 24.964844 4.488281 C 25.089844 4.871094 24.863281 5.277344 24.457031 5.394531 C 24.050781 5.511719 23.621094 5.296875 23.496094 4.914062 C 23.21875 4.054688 22.789062 3.339844 22.21875 2.765625 C 21.648438 2.1875 20.933594 1.742188 20.082031 1.421875 Z M 14.558594 2.164062 C 14.875 2.242188 15.183594 2.335938 15.484375 2.449219 C 15.921875 2.613281 16.34375 2.808594 16.75 3.039062 C 16.765625 3.050781 16.78125 3.058594 16.796875 3.066406 C 17.183594 3.292969 17.546875 3.542969 17.878906 3.808594 C 18.226562 4.089844 18.550781 4.402344 18.851562 4.742188 L 18.851562 4.746094 C 19.148438 5.082031 19.410156 5.441406 19.644531 5.820312 C 19.875 6.199219 20.074219 6.597656 20.242188 7.007812 C 20.410156 7.433594 20.539062 7.867188 20.625 8.3125 C 20.707031 8.757812 20.75 9.214844 20.75 9.683594 C 20.75 10.609375 20.75 11.109375 20.75 11.171875 C 20.753906 11.648438 20.757812 12.113281 20.761719 12.566406 L 20.761719 12.570312 C 20.761719 12.980469 20.789062 13.390625 20.84375 13.804688 C 20.898438 14.210938 20.976562 14.605469 21.078125 14.984375 C 21.179688 15.359375 21.316406 15.71875 21.484375 16.066406 C 21.664062 16.421875 21.878906 16.769531 22.128906 17.109375 L 22.132812 17.109375 C 22.382812 17.441406 22.695312 17.773438 23.070312 18.097656 C 23.457031 18.433594 23.902344 18.765625 24.417969 19.085938 C 24.710938 19.269531 24.789062 19.644531 24.589844 19.921875 C 24.46875 20.09375 24.265625 20.191406 24.058594 20.191406 L 0.941406 20.191406 C 0.585938 20.191406 0.300781 19.921875 0.300781 19.585938 C 0.300781 19.367188 0.425781 19.175781 0.609375 19.070312 C 1.128906 18.738281 1.574219 18.410156 1.945312 18.085938 C 2.316406 17.761719 2.625 17.429688 2.875 17.089844 C 2.882812 17.078125 2.890625 17.070312 2.898438 17.0625 C 3.140625 16.726562 3.347656 16.386719 3.519531 16.042969 C 3.691406 15.691406 3.832031 15.332031 3.9375 14.960938 C 3.9375 14.949219 3.941406 14.941406 3.941406 14.9375 C 4.042969 14.574219 4.117188 14.195312 4.167969 13.792969 C 4.21875 13.390625 4.25 12.976562 4.25 12.546875 L 4.25 9.683594 C 4.25 9.222656 4.292969 8.765625 4.378906 8.308594 C 4.46875 7.855469 4.59375 7.417969 4.765625 7 C 4.933594 6.585938 5.136719 6.183594 5.371094 5.804688 C 5.601562 5.421875 5.871094 5.0625 6.167969 4.722656 L 6.171875 4.71875 C 6.46875 4.382812 6.796875 4.070312 7.152344 3.785156 C 7.503906 3.503906 7.882812 3.246094 8.289062 3.015625 C 8.699219 2.785156 9.128906 2.589844 9.566406 2.429688 C 9.871094 2.320312 10.1875 2.230469 10.511719 2.152344 C 10.621094 1.789062 10.8125 1.496094 11.078125 1.269531 C 11.449219 0.960938 11.9375 0.804688 12.542969 0.8125 C 13.140625 0.816406 13.625 0.972656 13.992188 1.28125 C 14.257812 1.511719 14.449219 1.804688 14.558594 2.164062 Z M 15.019531 3.570312 C 14.664062 3.441406 14.300781 3.335938 13.933594 3.261719 C 13.648438 3.226562 13.417969 3.015625 13.378906 2.734375 C 13.34375 2.472656 13.265625 2.285156 13.136719 2.179688 C 13.011719 2.074219 12.808594 2.019531 12.53125 2.019531 C 12.253906 2.015625 12.054688 2.066406 11.929688 2.171875 C 11.804688 2.277344 11.726562 2.460938 11.695312 2.730469 C 11.664062 2.988281 11.457031 3.207031 11.175781 3.253906 C 10.777344 3.324219 10.390625 3.425781 10.019531 3.5625 C 9.644531 3.691406 9.289062 3.859375 8.945312 4.050781 C 8.605469 4.242188 8.28125 4.460938 7.984375 4.703125 C 7.6875 4.941406 7.410156 5.207031 7.15625 5.496094 C 6.90625 5.777344 6.683594 6.085938 6.484375 6.410156 C 6.289062 6.730469 6.113281 7.070312 5.96875 7.433594 C 5.820312 7.792969 5.714844 8.160156 5.644531 8.523438 C 5.574219 8.890625 5.539062 9.28125 5.539062 9.6875 L 5.539062 12.546875 C 5.539062 13.023438 5.507812 13.488281 5.449219 13.941406 C 5.390625 14.378906 5.304688 14.8125 5.1875 15.242188 C 5.183594 15.25 5.183594 15.257812 5.179688 15.269531 C 5.058594 15.707031 4.890625 16.132812 4.683594 16.558594 C 4.480469 16.964844 4.238281 17.359375 3.960938 17.746094 C 3.953125 17.757812 3.945312 17.769531 3.9375 17.78125 C 3.644531 18.179688 3.269531 18.574219 2.820312 18.96875 L 2.804688 18.984375 L 22.195312 18.984375 C 21.757812 18.601562 21.386719 18.207031 21.085938 17.804688 C 20.789062 17.40625 20.539062 16.996094 20.328125 16.578125 C 20.117188 16.152344 19.953125 15.71875 19.835938 15.285156 C 19.71875 14.851562 19.628906 14.40625 19.570312 13.953125 C 19.515625 13.515625 19.484375 13.058594 19.484375 12.578125 L 19.484375 12.574219 C 19.480469 12.125 19.476562 11.660156 19.476562 11.171875 C 19.472656 10.269531 19.472656 9.777344 19.472656 9.683594 C 19.472656 9.285156 19.4375 8.898438 19.363281 8.523438 C 19.292969 8.148438 19.1875 7.785156 19.046875 7.4375 C 18.902344 7.078125 18.730469 6.738281 18.539062 6.417969 C 18.34375 6.097656 18.121094 5.796875 17.867188 5.507812 C 17.617188 5.226562 17.34375 4.964844 17.046875 4.722656 C 16.761719 4.488281 16.453125 4.28125 16.132812 4.089844 C 16.117188 4.085938 16.105469 4.078125 16.089844 4.070312 C 15.742188 3.875 15.382812 3.710938 15.019531 3.570312 Z M 15.019531 3.570312 "/>
</g>
</svg>
