<?xml version="1.0" encoding="UTF-8"?>
<svg xmlns="http://www.w3.org/2000/svg" xmlns:xlink="http://www.w3.org/1999/xlink" width="50px" height="36px" viewBox="0 0 50 36" version="1.1">
<g id="surface1">
<path style=" stroke:none;fill-rule:nonzero;fill:rgb(0%,0%,0%);fill-opacity:1;" d="M 2.863281 0 L 47.085938 0 C 47.875 0 48.589844 0.320312 49.109375 0.835938 C 49.628906 1.351562 49.949219 2.066406 49.949219 2.851562 L 49.949219 33.089844 C 49.949219 33.679688 49.765625 34.230469 49.453125 34.6875 C 49.398438 34.835938 49.308594 34.972656 49.183594 35.089844 C 49.105469 35.167969 49.015625 35.230469 48.917969 35.277344 C 48.421875 35.691406 47.78125 35.941406 47.085938 35.941406 L 2.863281 35.941406 C 2.078125 35.941406 1.359375 35.621094 0.839844 35.105469 C 0.324219 34.589844 0 33.875 0 33.089844 L 0 2.851562 C 0 2.066406 0.320312 1.351562 0.839844 0.835938 C 1.359375 0.320312 2.074219 0 2.863281 0 Z M 2.199219 31.890625 L 17.695312 16.429688 L 2.199219 3.859375 Z M 19.402344 17.816406 L 3.425781 33.753906 L 46.390625 33.753906 L 31.125 17.820312 L 26.089844 22.085938 C 25.695312 22.421875 25.105469 22.441406 24.6875 22.105469 Z M 32.792969 16.402344 L 47.753906 32.015625 L 47.753906 3.71875 Z M 3.605469 2.1875 L 25.359375 19.839844 L 46.183594 2.1875 Z M 3.605469 2.1875 "/>
</g>
</svg>
