<?xml version="1.0" encoding="UTF-8"?>
<svg xmlns="http://www.w3.org/2000/svg" xmlns:xlink="http://www.w3.org/1999/xlink" width="22px" height="22px" viewBox="0 0 22 22" version="1.1">
<g id="surface1">
<path style=" stroke:none;fill-rule:evenodd;fill:rgb(0%,0%,0%);fill-opacity:1;" d="M 14.640625 1.722656 L 9.617188 4.683594 L 15.515625 5.476562 L 20.363281 2.492188 Z M 15.75 10.515625 C 18.964844 10.515625 21.566406 13.082031 21.566406 16.253906 C 21.566406 19.421875 18.964844 21.988281 15.75 21.988281 C 12.539062 21.988281 9.933594 19.421875 9.933594 16.253906 C 9.933594 13.082031 12.539062 10.515625 15.75 10.515625 Z M 13.554688 18.238281 L 14.230469 14.851562 L 14.914062 15.867188 C 16.390625 15.285156 17.21875 14.320312 17.339844 12.839844 C 18.554688 14.929688 17.816406 16.800781 16.28125 17.898438 L 16.980469 18.9375 Z M 8.921875 5.429688 L 8.917969 11.519531 L 6.679688 10.015625 L 4.4375 11.261719 L 4.703125 4.863281 L 0.84375 4.347656 L 0.84375 17.796875 L 8.640625 18.789062 C 8.75 19.09375 8.878906 19.390625 9.027344 19.675781 L 0.40625 18.578125 C 0.179688 18.566406 0 18.382812 0 18.160156 L 0 3.871094 C 0.0117188 3.699219 0.0820312 3.574219 0.25 3.492188 L 7.949219 0.046875 C 8.019531 0.015625 8.101562 0.00390625 8.179688 0.015625 L 21.605469 1.820312 C 21.824219 1.847656 21.976562 2.027344 21.976562 2.25 L 22 12.082031 C 21.75 11.71875 21.320312 11.207031 21.132812 10.886719 L 21.132812 3 L 16.085938 6.21875 L 16.085938 8.789062 C 15.804688 8.777344 15.523438 8.785156 15.242188 8.804688 L 15.242188 6.277344 Z M 5.371094 4.117188 L 10.257812 1.132812 L 8.1875 0.855469 L 1.925781 3.65625 Z M 5.371094 4.117188 "/>
</g>
</svg>
