<?xml version="1.0" encoding="UTF-8"?>
<svg xmlns="http://www.w3.org/2000/svg" xmlns:xlink="http://www.w3.org/1999/xlink" width="21px" height="23px" viewBox="0 0 21 23" version="1.1">
<g id="surface1">
<path style=" stroke:none;fill-rule:evenodd;fill:rgb(0%,0%,0%);fill-opacity:1;" d="M 15.019531 12.292969 C 16.738281 12.296875 18.316406 13.238281 19.132812 14.746094 C 19.949219 16.25 19.875 18.082031 18.941406 19.519531 L 20.96875 21.726562 L 19.570312 23 L 17.613281 20.855469 C 15.941406 21.976562 13.738281 21.90625 12.140625 20.683594 C 10.542969 19.460938 9.90625 17.355469 10.558594 15.457031 C 11.207031 13.554688 13.003906 12.28125 15.019531 12.292969 Z M 3.597656 12.339844 C 3.316406 12.324219 3.097656 12.089844 3.109375 11.808594 C 3.101562 11.671875 3.148438 11.542969 3.242188 11.441406 C 3.332031 11.339844 3.460938 11.28125 3.597656 11.277344 L 9.90625 11.277344 C 10.183594 11.292969 10.402344 11.527344 10.394531 11.808594 C 10.398438 11.945312 10.351562 12.078125 10.261719 12.175781 C 10.167969 12.277344 10.039062 12.335938 9.90625 12.339844 Z M 15.675781 3.234375 L 17.425781 3.234375 C 18.113281 3.234375 18.671875 3.789062 18.675781 4.476562 L 18.675781 10.261719 C 18.636719 10.652344 17.679688 10.65625 17.597656 10.261719 L 17.597656 4.476562 C 17.597656 4.429688 17.578125 4.386719 17.546875 4.351562 C 17.511719 4.320312 17.46875 4.300781 17.417969 4.300781 L 15.667969 4.300781 L 15.667969 10.261719 C 15.578125 10.613281 14.777344 10.667969 14.597656 10.261719 L 14.597656 1.246094 C 14.597656 1.199219 14.578125 1.15625 14.546875 1.125 C 14.511719 1.089844 14.46875 1.070312 14.421875 1.074219 L 1.28125 1.074219 C 1.234375 1.070312 1.191406 1.089844 1.15625 1.125 C 1.125 1.15625 1.105469 1.203125 1.105469 1.25 L 1.105469 16.058594 C 1.105469 16.105469 1.125 16.152344 1.15625 16.183594 C 1.191406 16.21875 1.234375 16.234375 1.28125 16.234375 L 8.429688 16.234375 C 8.96875 16.289062 8.992188 17.222656 8.429688 17.304688 L 4.097656 17.304688 L 4.097656 19.289062 C 4.09375 19.335938 4.113281 19.382812 4.148438 19.414062 C 4.179688 19.449219 4.226562 19.46875 4.273438 19.464844 L 8.429688 19.464844 C 8.820312 19.511719 8.945312 20.402344 8.429688 20.535156 L 4.28125 20.535156 C 3.949219 20.535156 3.628906 20.398438 3.398438 20.160156 C 3.160156 19.929688 3.023438 19.613281 3.023438 19.28125 L 3.023438 17.304688 L 1.28125 17.304688 C 0.59375 17.300781 0.0351562 16.746094 0.03125 16.058594 L 0.03125 1.246094 C 0.0351562 0.917969 0.167969 0.601562 0.40625 0.375 C 0.636719 0.136719 0.957031 0 1.289062 0 L 14.425781 0 C 14.757812 0 15.078125 0.136719 15.308594 0.375 C 15.546875 0.605469 15.679688 0.921875 15.683594 1.253906 L 15.683594 3.234375 Z M 3.582031 4.949219 C 3.304688 4.933594 3.085938 4.695312 3.097656 4.417969 C 3.089844 4.28125 3.136719 4.148438 3.230469 4.050781 C 3.320312 3.949219 3.449219 3.890625 3.582031 3.886719 L 12.015625 3.886719 C 12.296875 3.898438 12.515625 4.136719 12.503906 4.417969 C 12.511719 4.550781 12.464844 4.683594 12.371094 4.785156 C 12.28125 4.882812 12.152344 4.945312 12.015625 4.949219 Z M 3.582031 8.644531 C 3.304688 8.628906 3.085938 8.394531 3.097656 8.113281 C 3.089844 7.980469 3.136719 7.847656 3.230469 7.746094 C 3.320312 7.648438 3.449219 7.585938 3.582031 7.582031 L 12.015625 7.582031 C 12.296875 7.597656 12.515625 7.832031 12.503906 8.113281 C 12.511719 8.25 12.464844 8.382812 12.371094 8.480469 C 12.28125 8.582031 12.152344 8.640625 12.015625 8.644531 Z M 14.222656 16.710938 C 14.144531 16.589844 14 16.421875 14 16.277344 C 14.003906 16.179688 14.066406 16.097656 14.15625 16.066406 C 14.15625 15.945312 14.144531 15.820312 14.144531 15.691406 C 14.144531 15.617188 14.144531 15.542969 14.144531 15.472656 C 14.148438 15.4375 14.15625 15.398438 14.167969 15.363281 C 14.222656 15.179688 14.347656 15.023438 14.515625 14.925781 C 14.574219 14.886719 14.636719 14.859375 14.703125 14.835938 C 14.820312 14.792969 14.765625 14.601562 14.890625 14.601562 C 15.265625 14.644531 15.621094 14.808594 15.894531 15.070312 C 16.019531 15.199219 16.089844 15.367188 16.09375 15.546875 L 16.082031 16.082031 C 16.140625 16.09375 16.1875 16.132812 16.210938 16.191406 C 16.25 16.355469 16.074219 16.566406 15.996094 16.703125 C 15.914062 16.839844 15.632812 17.160156 15.632812 17.164062 C 15.632812 17.1875 15.644531 17.210938 15.65625 17.226562 C 16.105469 17.835938 17.414062 17.367188 17.414062 18.582031 L 12.792969 18.582031 C 12.792969 17.367188 14.105469 17.832031 14.546875 17.226562 C 14.566406 17.210938 14.574219 17.1875 14.582031 17.164062 C 14.582031 17.164062 14.25 16.753906 14.21875 16.707031 Z M 15.023438 13.265625 C 17.082031 13.269531 18.75 14.933594 18.746094 16.988281 C 18.746094 19.039062 17.078125 20.703125 15.019531 20.703125 C 12.960938 20.699219 11.292969 19.035156 11.292969 16.984375 C 11.292969 15.996094 11.683594 15.050781 12.386719 14.355469 C 13.085938 13.65625 14.035156 13.265625 15.023438 13.265625 Z M 15.023438 13.265625 "/>
</g>
</svg>
