<?xml version="1.0" encoding="UTF-8"?>
<svg xmlns="http://www.w3.org/2000/svg" xmlns:xlink="http://www.w3.org/1999/xlink" width="40px" height="40px" viewBox="0 0 40 40" version="1.1">
<g id="surface1">
<path style=" stroke:none;fill-rule:evenodd;fill:rgb(98.431373%,84.313725%,20.392157%);fill-opacity:1;" d="M 2.644531 17.335938 L 37.375 17.335938 C 38.777344 17.339844 39.914062 18.144531 39.921875 19.136719 L 39.921875 38.195312 C 39.917969 39.191406 38.777344 39.996094 37.375 40 L 2.644531 40 C 1.238281 40 0.0976562 39.191406 0.09375 38.195312 L 0.09375 19.136719 C 0.101562 18.144531 1.238281 17.335938 2.644531 17.335938 Z M 2.644531 17.335938 "/>
<path style=" stroke:none;fill-rule:evenodd;fill:rgb(21.176471%,27.45098%,30.588235%);fill-opacity:1;" d="M 17.90625 29.890625 L 15.144531 34.988281 L 24.839844 34.988281 L 22.292969 29.816406 C 24.371094 29.0625 25.433594 27.390625 24.855469 25.789062 C 24.28125 24.1875 22.214844 23.078125 19.878906 23.117188 C 17.542969 23.15625 15.554688 24.328125 15.082031 25.949219 C 14.609375 27.566406 15.78125 29.199219 17.90625 29.890625 Z M 17.90625 29.890625 "/>
<path style=" stroke:none;fill-rule:evenodd;fill:rgb(21.176471%,27.45098%,30.588235%);fill-opacity:1;" d="M 30.789062 11.121094 C 30.6875 9.113281 29.550781 7.203125 27.59375 5.753906 C 25.628906 4.261719 22.878906 3.417969 20 3.417969 C 17.121094 3.417969 14.371094 4.261719 12.40625 5.75 C 10.328125 7.285156 9.175781 9.332031 9.183594 11.453125 L 9.183594 17.335938 L 4.371094 17.335938 L 4.371094 11.457031 C 4.363281 8.453125 5.996094 5.5625 8.933594 3.390625 C 11.800781 1.230469 15.808594 0.0078125 19.996094 0.0078125 C 24.1875 0.0078125 28.191406 1.230469 31.0625 3.390625 C 33.886719 5.476562 35.511719 8.234375 35.621094 11.121094 Z M 30.789062 11.121094 "/>
</g>
</svg>
