<?xml version="1.0" encoding="UTF-8"?>
<svg xmlns="http://www.w3.org/2000/svg" xmlns:xlink="http://www.w3.org/1999/xlink" width="40px" height="50px" viewBox="0 0 40 50" version="1.1">
<g id="surface1">
<path style=" stroke:none;fill-rule:evenodd;fill:rgb(98.431373%,84.313725%,20.392157%);fill-opacity:1;" d="M 2.644531 21.667969 L 37.375 21.667969 C 38.777344 21.675781 39.914062 22.679688 39.921875 23.921875 L 39.921875 47.746094 C 39.917969 48.988281 38.777344 49.996094 37.375 50 L 2.644531 50 C 1.238281 49.996094 0.0976562 48.988281 0.09375 47.746094 L 0.09375 23.921875 C 0.101562 22.679688 1.238281 21.671875 2.644531 21.667969 Z M 2.644531 21.667969 "/>
<path style=" stroke:none;fill-rule:evenodd;fill:rgb(21.176471%,27.45098%,30.588235%);fill-opacity:1;" d="M 17.90625 37.363281 L 15.144531 43.734375 L 24.839844 43.734375 L 22.292969 37.273438 C 24.371094 36.324219 25.433594 34.238281 24.855469 32.234375 C 24.28125 30.234375 22.214844 28.847656 19.878906 28.894531 C 17.542969 28.941406 15.554688 30.410156 15.082031 32.433594 C 14.609375 34.457031 15.78125 36.5 17.90625 37.363281 Z M 17.90625 37.363281 "/>
<path style=" stroke:none;fill-rule:evenodd;fill:rgb(21.176471%,27.45098%,30.588235%);fill-opacity:1;" d="M 30.789062 13.898438 C 30.6875 11.394531 29.550781 9.003906 27.59375 7.191406 C 25.628906 5.328125 22.878906 4.269531 20 4.269531 C 17.121094 4.269531 14.371094 5.328125 12.40625 7.191406 C 10.328125 9.109375 9.175781 11.664062 9.183594 14.320312 L 9.183594 21.667969 L 4.371094 21.667969 L 4.371094 14.320312 C 4.363281 10.566406 5.996094 6.953125 8.933594 4.238281 C 11.800781 1.539062 15.808594 0.0078125 19.996094 0.0078125 C 24.1875 0.0078125 28.191406 1.539062 31.0625 4.238281 C 33.886719 6.847656 35.511719 10.292969 35.621094 13.898438 Z M 30.789062 13.898438 "/>
</g>
</svg>
